<?xml version="1.0" encoding="UTF-8" standalone="no"?>
<svg
   xmlns:dc="http://purl.org/dc/elements/1.1/"
   xmlns:cc="http://creativecommons.org/ns#"
   xmlns:rdf="http://www.w3.org/1999/02/22-rdf-syntax-ns#"
   xmlns:svg="http://www.w3.org/2000/svg"
   xmlns="http://www.w3.org/2000/svg"
   viewBox="0 0 100 73.414127"
   height="73.414131"
   width="100"
   xml:space="preserve"
   version="1.1"
   id="svg2"><metadata
     id="metadata8"><rdf:RDF><cc:Work
         rdf:about=""><dc:format>image/svg+xml</dc:format><dc:type
           rdf:resource="http://purl.org/dc/dcmitype/StillImage" /><dc:title></dc:title></cc:Work></rdf:RDF></metadata><defs
     id="defs6"><clipPath
       id="clipPath16"
       clipPathUnits="userSpaceOnUse"><path
         id="path18"
         d="m 0,841.89 595.276,0 L 595.276,0 0,0 0,841.89 Z" /></clipPath></defs><g
     transform="matrix(1.25,0,0,-1.25,-253.54838,517.88874)"
     id="g10"><g
       transform="matrix(0.446525,0,0,0.446525,112.26615,196.80447)"
       id="g14"
       clip-path="url(#clipPath16)"><g
         id="g20"
         transform="translate(221.5547,476.9214)"><path
           d="m 0,0 c -0.377,2.717 -2.49,4.151 -5.434,4.151 -4.528,0 -6.264,-4 -6.264,-8 0,-4 1.736,-8 6.264,-8 3.283,0 5.17,1.887 5.434,4.981 l 7.019,0 c -0.377,-6.943 -5.472,-11.018 -12.302,-11.018 -8.151,0 -13.433,6.226 -13.433,14.037 0,7.811 5.282,14.037 13.433,14.037 C 0.528,10.188 6.83,6.49 7.019,0 L 0,0 Z"
           style="fill:#000000;fill-opacity:1;fill-rule:nonzero;stroke:none"
           id="path22" /></g><path
         d="m 231.178,486.544 6.415,0 0,-26.943 -6.415,0 0,26.943 z"
         style="fill:#000000;fill-opacity:1;fill-rule:nonzero;stroke:none"
         id="path24" /><g
         id="g26"
         transform="translate(254.4595,471.4121)"><path
           d="M 0,0 C -0.113,2.188 -1.66,4 -3.811,4 -6.075,4 -7.584,2.377 -7.962,0 L 0,0 Z m -7.962,-3.585 c 0.113,-2.679 1.66,-4.453 4.377,-4.453 1.547,0 3.057,0.717 3.661,2.151 l 5.999,0 c -1.169,-4.528 -5.358,-6.49 -9.735,-6.49 -6.378,0 -10.717,3.849 -10.717,10.415 0,6 4.793,10.301 10.566,10.301 7.019,0 10.528,-5.282 10.226,-11.924 l -14.377,0 z"
           style="fill:#000000;fill-opacity:1;fill-rule:nonzero;stroke:none"
           id="path28" /></g><g
         id="g30"
         transform="translate(272.1577,462.9971)"><path
           d="M 0,0 C 3.057,0 4.075,1.736 3.924,5.773 3.019,5.208 1.358,5.094 -0.038,4.717 -1.472,4.377 -2.679,3.773 -2.679,2.227 -2.679,0.642 -1.434,0 0,0 m -8.302,10.151 c 0.114,2.566 1.321,4.226 3.057,5.245 1.736,0.981 4,1.358 6.226,1.358 4.642,0 9.132,-1.018 9.132,-6.566 l 0,-8.565 c 0,-1.661 0,-3.472 0.755,-5.019 l -6.453,0 c -0.227,0.604 -0.302,1.208 -0.377,1.849 -1.661,-1.736 -4.114,-2.415 -6.453,-2.415 -3.736,0 -6.679,1.887 -6.679,5.924 0,6.377 6.943,5.887 11.396,6.793 C 3.396,8.981 4,9.358 4,10.566 c 0,1.472 -1.773,2.038 -3.094,2.038 -1.774,0 -2.906,-0.793 -3.208,-2.453 l -6,0 z"
           style="fill:#000000;fill-opacity:1;fill-rule:nonzero;stroke:none"
           id="path32" /></g><g
         id="g34"
         transform="translate(285.4023,479.1855)"><path
           d="m 0,0 6.226,0 0,-2.679 0.076,0 c 1.17,2 3.811,3.245 6.151,3.245 6.527,0 7.056,-4.754 7.056,-7.585 l 0,-12.565 -6.415,0 0,9.471 c 0,2.679 0.302,5.396 -3.207,5.396 -2.415,0 -3.472,-2.037 -3.472,-4.188 l 0,-10.679 -6.415,0 L 0,0 Z"
           style="fill:#000000;fill-opacity:1;fill-rule:nonzero;stroke:none"
           id="path36" /></g><g
         id="g38"
         transform="translate(221.5547,441.1855)"><path
           d="m 0,0 c -0.377,2.717 -2.49,4.151 -5.434,4.151 -4.528,0 -6.264,-4 -6.264,-8 0,-4 1.736,-8 6.264,-8 3.283,0 5.17,1.887 5.434,4.981 l 7.019,0 c -0.377,-6.943 -5.472,-11.018 -12.302,-11.018 -8.151,0 -13.433,6.226 -13.433,14.037 0,7.811 5.282,14.037 13.433,14.037 C 0.528,10.188 6.83,6.49 7.019,0 L 0,0 Z"
           style="fill:#000000;fill-opacity:1;fill-rule:nonzero;stroke:none"
           id="path40" /></g><path
         d="m 231.178,450.808 6.415,0 0,-26.943 -6.415,0 0,26.943 z"
         style="fill:#000000;fill-opacity:1;fill-rule:nonzero;stroke:none"
         id="path42" /><g
         id="g44"
         transform="translate(250.3843,428.2046)"><path
           d="m 0,0 c 2.981,0 3.924,2.943 3.924,5.434 0,2.49 -0.943,5.472 -3.924,5.472 -2.981,0 -3.887,-2.982 -3.887,-5.472 C -3.887,2.943 -2.981,0 0,0 m 0,15.811 c 6.075,0 10.339,-4.49 10.339,-10.377 0,-5.887 -4.264,-10.339 -10.339,-10.339 -6.076,0 -10.302,4.452 -10.302,10.339 0,5.887 4.226,10.377 10.302,10.377"
           style="fill:#000000;fill-opacity:1;fill-rule:nonzero;stroke:none"
           id="path46" /></g><g
         id="g48"
         transform="translate(274.7988,439.2988)"><path
           d="m 0,0 -3.962,0 0,-8.905 c 0,-1.548 0.905,-1.887 2.302,-1.887 0.528,0 1.094,0.075 1.66,0.075 l 0,-4.717 c -1.17,-0.037 -2.339,-0.188 -3.509,-0.188 -5.472,0 -6.868,1.584 -6.868,6.905 l 0,8.717 -3.245,0 0,4.151 3.245,0 0,5.924 6.415,0 0,-5.924 L 0,4.151 0,0 Z"
           style="fill:#000000;fill-opacity:1;fill-rule:nonzero;stroke:none"
           id="path50" /></g><g
         id="g52"
         transform="translate(277.3271,450.8081)"><path
           d="m 0,0 6.415,0 0,-10.038 0.075,0 c 0.982,2 3.623,3.246 5.963,3.246 6.527,0 7.056,-4.755 7.056,-7.585 l 0,-12.566 -6.415,0 0,9.472 c 0,2.679 0.302,5.396 -3.207,5.396 -2.415,0 -3.472,-2.038 -3.472,-4.189 l 0,-10.679 -6.415,0 L 0,0 Z"
           style="fill:#000000;fill-opacity:1;fill-rule:nonzero;stroke:none"
           id="path54" /></g><g
         id="g56"
         transform="translate(313.4395,435.6763)"><path
           d="M 0,0 C -0.113,2.188 -1.66,4 -3.811,4 -6.074,4 -7.584,2.377 -7.961,0 L 0,0 Z m -7.961,-3.585 c 0.113,-2.679 1.66,-4.453 4.377,-4.453 1.547,0 3.057,0.717 3.66,2.151 l 6,0 c -1.17,-4.528 -5.358,-6.49 -9.736,-6.49 -6.377,0 -10.717,3.849 -10.717,10.415 0,6 4.793,10.301 10.566,10.301 7.019,0 10.528,-5.282 10.227,-11.924 l -14.377,0 z"
           style="fill:#000000;fill-opacity:1;fill-rule:nonzero;stroke:none"
           id="path58" /></g><g
         id="g60"
         transform="translate(327.7031,430.3179)"><path
           d="m 0,0 c 0,-0.981 0.416,-1.698 1.057,-2.188 0.604,-0.454 1.472,-0.68 2.378,-0.68 1.245,0 3.018,0.529 3.018,2.076 0,1.509 -2,1.811 -3.132,2.075 -4.038,1.019 -9.094,1.132 -9.094,6.415 0,4.717 5.094,6 8.943,6 4.303,0 8.793,-1.245 9.019,-6.34 l -5.924,0 c 0,0.83 -0.302,1.359 -0.83,1.699 -0.529,0.339 -1.246,0.49 -2.039,0.49 -1.056,0 -2.753,-0.113 -2.753,-1.472 0,-1.849 4.3,-2.188 7.244,-2.83 3.963,-0.792 4.981,-3.66 4.981,-5.283 0,-5.245 -4.981,-6.981 -9.395,-6.981 -4.643,0 -9.397,1.547 -9.585,7.019 L 0,0 Z"
           style="fill:#000000;fill-opacity:1;fill-rule:nonzero;stroke:none"
           id="path62" /></g><g
         id="g64"
         transform="translate(221.5547,405.4502)"><path
           d="m 0,0 c -0.377,2.717 -2.49,4.151 -5.434,4.151 -4.528,0 -6.264,-4 -6.264,-8 0,-4 1.736,-8 6.264,-8 3.283,0 5.17,1.887 5.434,4.981 l 7.019,0 c -0.377,-6.944 -5.472,-11.018 -12.302,-11.018 -8.151,0 -13.433,6.226 -13.433,14.037 0,7.811 5.282,14.037 13.433,14.037 C 0.528,10.188 6.83,6.49 7.019,0 L 0,0 Z"
           style="fill:#000000;fill-opacity:1;fill-rule:nonzero;stroke:none"
           id="path66" /></g><g
         id="g68"
         transform="translate(238.9888,391.5254)"><path
           d="M 0,0 C 3.057,0 4.075,1.736 3.924,5.773 3.019,5.208 1.358,5.095 -0.038,4.717 -1.472,4.378 -2.679,3.773 -2.679,2.227 -2.679,0.643 -1.434,0 0,0 m -8.302,10.151 c 0.114,2.566 1.321,4.226 3.057,5.245 1.736,0.981 4,1.359 6.226,1.359 4.642,0 9.132,-1.019 9.132,-6.566 l 0,-8.566 c 0,-1.66 0,-3.471 0.755,-5.019 l -6.453,0 c -0.227,0.604 -0.302,1.208 -0.377,1.849 -1.661,-1.735 -4.114,-2.414 -6.453,-2.414 -3.736,0 -6.679,1.887 -6.679,5.924 0,6.377 6.943,5.887 11.396,6.793 C 3.396,8.981 4,9.359 4,10.566 c 0,1.472 -1.773,2.038 -3.094,2.038 -1.774,0 -2.906,-0.792 -3.208,-2.453 l -6,0 z"
           style="fill:#000000;fill-opacity:1;fill-rule:nonzero;stroke:none"
           id="path70" /></g><g
         id="g72"
         transform="translate(252.2334,407.7148)"><path
           d="m 0,0 6.226,0 0,-2.68 0.076,0 c 1.17,1.963 3.245,3.245 5.622,3.245 2.453,0 4.641,-0.792 5.698,-3.169 1.547,2.075 3.472,3.169 6.113,3.169 6.226,0 6.906,-4.716 6.906,-8.452 l 0,-11.698 -6.415,0 0,11.509 c 0,2.113 -1.019,3.359 -2.679,3.359 -2.755,0 -3.019,-2.113 -3.019,-5.283 l 0,-9.585 -6.415,0 0,11.132 c 0,2.302 -0.679,3.736 -2.415,3.736 -2.302,0 -3.283,-1.321 -3.283,-5.321 l 0,-9.547 -6.415,0 L 0,0 Z"
           style="fill:#000000;fill-opacity:1;fill-rule:nonzero;stroke:none"
           id="path74" /></g><g
         id="g76"
         transform="translate(292.271,398.1299)"><path
           d="m 0,0 c 0,-3.435 0.981,-5.661 3.887,-5.661 2.867,0 3.849,2.982 3.849,5.661 0,2.49 -0.982,5.245 -3.812,5.245 C 2.188,5.245 0,4.038 0,0 m -6.188,9.585 6.113,0 0,-2.265 0.075,0 c 1.245,1.849 3.132,2.83 5.396,2.83 6.151,0 8.755,-5.282 8.755,-10.792 0,-5.093 -2.717,-9.923 -8.264,-9.923 -2.415,0 -4.264,0.905 -5.585,2.678 l -0.075,0 0,-8.678 -6.415,0 0,26.15 z"
           style="fill:#000000;fill-opacity:1;fill-rule:nonzero;stroke:none"
           id="path78" /></g><g
         id="g80"
         transform="translate(316.7988,391.5254)"><path
           d="M 0,0 C 3.057,0 4.075,1.736 3.924,5.773 3.019,5.208 1.358,5.095 -0.037,4.717 -1.472,4.378 -2.68,3.773 -2.68,2.227 -2.68,0.643 -1.434,0 0,0 m -8.302,10.151 c 0.114,2.566 1.322,4.226 3.057,5.245 1.735,0.981 4,1.359 6.225,1.359 4.643,0 9.133,-1.019 9.133,-6.566 l 0,-8.566 c 0,-1.66 0,-3.471 0.754,-5.019 l -6.452,0 c -0.227,0.604 -0.302,1.208 -0.378,1.849 -1.66,-1.735 -4.113,-2.414 -6.452,-2.414 -3.735,0 -6.679,1.887 -6.679,5.924 0,6.377 6.944,5.887 11.396,6.793 C 3.396,8.981 4,9.359 4,10.566 c 0,1.472 -1.773,2.038 -3.094,2.038 -1.774,0 -2.906,-0.792 -3.208,-2.453 l -6,0 z"
           style="fill:#000000;fill-opacity:1;fill-rule:nonzero;stroke:none"
           id="path82" /></g><path
         d="m 330.27,407.715 6.416,0 0,-19.585 -6.416,0 0,19.585 z m 6.416,2.452 -6.416,0 0,4.905 6.416,0 0,-4.905 z"
         style="fill:#000000;fill-opacity:1;fill-rule:nonzero;stroke:none"
         id="path84" /><g
         id="g86"
         transform="translate(349.1367,403.375)"><path
           d="m 0,0 c -2.83,0 -3.735,-2.49 -3.735,-4.906 0,-2.301 1.056,-4.604 3.698,-4.604 2.717,0 3.887,2.114 3.887,4.567 C 3.85,-2.453 2.869,0 0,0 m 9.925,-12.867 c 0,-3.208 -0.604,-9.246 -9.774,-9.246 -4.565,0 -8.868,1.019 -9.622,6.264 l 6.414,0 c 0.153,-0.868 0.492,-1.396 1.096,-1.698 0.565,-0.302 1.357,-0.415 2.339,-0.415 3.057,0 3.358,2.151 3.358,4.566 l 0,1.849 -0.075,0 c -1.17,-1.811 -3.132,-2.868 -5.208,-2.868 -5.924,0 -8.603,4.227 -8.603,9.735 0,5.208 3.056,9.585 8.603,9.585 2.34,0 4.113,-1.018 5.246,-3.018 l 0.074,0 0,2.453 6.152,0 0,-17.207 z"
           style="fill:#000000;fill-opacity:1;fill-rule:nonzero;stroke:none"
           id="path88" /></g><g
         id="g90"
         transform="translate(362.043,407.7148)"><path
           d="m 0,0 6.227,0 0,-2.68 0.075,0 c 1.17,2 3.811,3.245 6.151,3.245 6.527,0 7.056,-4.754 7.056,-7.585 l 0,-12.565 -6.415,0 0,9.472 c 0,2.679 0.302,5.396 -3.207,5.396 -2.415,0 -3.472,-2.038 -3.472,-4.189 l 0,-10.679 -6.415,0 L 0,0 Z"
           style="fill:#000000;fill-opacity:1;fill-rule:nonzero;stroke:none"
           id="path92" /></g><g
         id="g94"
         transform="translate(355.415,367.2715)"><path
           d="m 0,0 11.549,0.011 -2.852,4.442 2.421,0.018 3.026,-4.582 c 0.946,-0.012 1.821,-0.043 2.627,-0.094 0.805,-0.051 1.569,-0.122 2.292,-0.206 l 0.541,-0.064 c -0.11,0.273 -0.188,0.535 -0.233,0.79 -0.047,0.257 -0.058,0.493 -0.033,0.714 0.086,0.713 0.41,1.278 0.967,1.693 0.558,0.416 1.214,0.58 1.961,0.489 0.845,-0.098 1.539,-0.475 2.078,-1.122 0.539,-0.649 0.761,-1.369 0.668,-2.161 -0.082,-0.688 -0.383,-1.215 -0.907,-1.586 -0.521,-0.371 -1.161,-0.512 -1.916,-0.421 -0.363,0.043 -0.894,0.192 -1.595,0.45 -0.7,0.257 -1.235,0.406 -1.594,0.449 -0.582,0.069 -1.171,0.004 -1.771,-0.199 -0.6,-0.2 -1.227,-0.549 -1.887,-1.043 0.397,-0.869 0.927,-1.614 1.588,-2.24 0.662,-0.622 1.443,-1.109 2.347,-1.457 0.298,-0.114 0.715,-0.268 1.244,-0.455 0.534,-0.188 0.874,-0.326 1.024,-0.416 0.5,-0.311 0.873,-0.692 1.117,-1.143 0.246,-0.453 0.34,-0.944 0.276,-1.471 -0.081,-0.687 -0.397,-1.226 -0.947,-1.615 -0.553,-0.39 -1.216,-0.539 -1.991,-0.446 -0.802,0.094 -1.449,0.452 -1.935,1.071 -0.491,0.623 -0.688,1.332 -0.592,2.133 0.039,0.342 0.148,0.658 0.326,0.945 0.178,0.287 0.431,0.551 0.765,0.799 -1.086,0.449 -2.031,0.988 -2.825,1.613 -0.796,0.626 -1.44,1.335 -1.936,2.127 C 10.9,-2.838 8.912,-2.736 7.84,-2.67 6.769,-2.608 5.984,-2.545 5.491,-2.486 4.25,-2.34 3.194,-2.067 2.328,-1.67 1.459,-1.27 0.684,-0.715 0,0 m 20.246,0.949 c -0.066,-0.547 0.088,-1.039 0.461,-1.47 0.373,-0.433 0.862,-0.685 1.467,-0.757 0.531,-0.064 0.982,0.034 1.356,0.29 0.373,0.254 0.588,0.609 0.642,1.068 C 24.239,0.645 24.078,1.158 23.69,1.619 23.305,2.08 22.807,2.348 22.202,2.42 21.69,2.479 21.252,2.373 20.885,2.099 20.518,1.824 20.305,1.44 20.246,0.949 m -1.91,-9.596 c -0.066,-0.574 0.07,-1.07 0.41,-1.496 0.346,-0.423 0.811,-0.67 1.4,-0.74 0.511,-0.06 0.944,0.035 1.299,0.289 0.356,0.25 0.563,0.605 0.616,1.064 0.062,0.526 -0.109,1.016 -0.516,1.467 -0.408,0.449 -0.912,0.709 -1.522,0.782 -0.466,0.054 -0.849,-0.041 -1.15,-0.284 -0.3,-0.248 -0.48,-0.609 -0.537,-1.082"
           style="fill:#df261a;fill-opacity:1;fill-rule:nonzero;stroke:none"
           id="path96" /></g><g
         id="g98"
         transform="translate(203,371.9902)"><path
           d="M 0,0 179,0"
           style="fill:none;stroke:#000000;stroke-width:0.75;stroke-linecap:butt;stroke-linejoin:miter;stroke-miterlimit:4;stroke-dasharray:2.359, 1.572;stroke-dashoffset:0;stroke-opacity:1"
           id="path100" /></g></g></g></svg>