<?xml version="1.0" encoding="UTF-8" standalone="no"?>
<svg
   xmlns:dc="http://purl.org/dc/elements/1.1/"
   xmlns:cc="http://creativecommons.org/ns#"
   xmlns:rdf="http://www.w3.org/1999/02/22-rdf-syntax-ns#"
   xmlns:svg="http://www.w3.org/2000/svg"
   xmlns="http://www.w3.org/2000/svg"
   viewBox="0 0 273.56 198.21333"
   height="198.21333"
   width="273.56"
   xml:space="preserve"
   id="svg2"
   version="1.1"><metadata
     id="metadata8"><rdf:RDF><cc:Work
         rdf:about=""><dc:format>image/svg+xml</dc:format><dc:type
           rdf:resource="http://purl.org/dc/dcmitype/StillImage" /><dc:title></dc:title></cc:Work></rdf:RDF></metadata><defs
     id="defs6" /><g
     transform="matrix(1.3333333,0,0,-1.3333333,0,198.21333)"
     id="g10"><path
       d="m 184.443,35.2559 c -2.627,0 -4.757,2.1293 -4.757,4.7562 0,2.627 2.13,4.7559 4.757,4.7559 2.627,0 4.756,-2.1289 4.756,-4.7559 0,-2.6269 -2.129,-4.7562 -4.756,-4.7562 z m 0,11.9171 c -3.955,0 -7.161,-3.2058 -7.161,-7.1609 0,-3.9551 7.161,-14.132 7.161,-14.132 0,0 7.16,10.1769 7.16,14.132 0,3.9551 -3.206,7.1609 -7.16,7.1609"
       style="fill:#e81c2c;fill-opacity:1;fill-rule:nonzero;stroke:none;stroke-width:0.1"
       id="path14" /><path
       d="m 165.064,13.648 h 4.85 v -1.0519 h -6.196 v 9.9449 h 1.346 v -8.893"
       style="fill:#100f0d;fill-opacity:1;fill-rule:nonzero;stroke:none;stroke-width:0.1"
       id="path16" /><path
       d="m 171.546,12.5961 h 1.35273 v 9.94492 H 171.546 Z"
       style="fill:#100f0d;fill-opacity:1;fill-rule:nonzero;stroke:none;stroke-width:0.1"
       id="path18" /><path
       d="m 178.383,15.2051 0.226,-0.8262 h 0.041 l 0.225,0.8262 2.569,7.3359 h 1.455 l -3.696,-9.9449 h -1.154 l -3.696,9.9449 h 1.462 l 2.568,-7.3359"
       style="fill:#100f0d;fill-opacity:1;fill-rule:nonzero;stroke:none;stroke-width:0.1"
       id="path20" /><path
       d="m 184.347,12.5961 h 1.35313 v 9.94492 H 184.347 Z"
       style="fill:#100f0d;fill-opacity:1;fill-rule:nonzero;stroke:none;stroke-width:0.1"
       id="path22" /><path
       d="m 195.686,12.5961 h -1.347 l -4.787,7.5961 -0.041,-0.0141 v -7.582 h -1.346 v 9.9449 h 1.346 l 4.787,-7.5871 0.041,0.0121 v 7.575 h 1.347 v -9.9449"
       style="fill:#100f0d;fill-opacity:1;fill-rule:nonzero;stroke:none;stroke-width:0.1"
       id="path24" /><path
       d="m 205.166,13.9352 c -0.236,-0.368 -0.648,-0.7082 -1.233,-1.018 -0.585,-0.3102 -1.344,-0.4641 -2.277,-0.4641 -1.148,0 -2.098,0.3801 -2.849,1.1399 -0.752,0.7609 -1.127,1.7441 -1.127,2.9511 v 2.0489 c 0,1.207 0.361,2.191 1.086,2.9511 0.724,0.761 1.657,1.1418 2.801,1.1418 1.106,0 1.98,-0.2949 2.623,-0.8859 0.642,-0.5891 0.954,-1.3398 0.935,-2.25 l -0.013,-0.041 h -1.291 c 0,0.6058 -0.197,1.1109 -0.588,1.5129 -0.392,0.4031 -0.947,0.6043 -1.666,0.6043 -0.761,0 -1.373,-0.2852 -1.837,-0.8532 -0.465,-0.5699 -0.697,-1.291 -0.697,-2.166 v -2.0629 c 0,-0.8832 0.246,-1.6113 0.738,-2.1812 0.491,-0.5731 1.12,-0.8578 1.885,-0.8578 0.588,0 1.052,0.075 1.396,0.2289 0.344,0.1519 0.6,0.3332 0.769,0.543 v 2.2402 h -2.254 v 1.0519 h 3.599 v -3.6339"
       style="fill:#100f0d;fill-opacity:1;fill-rule:nonzero;stroke:none;stroke-width:0.1"
       id="path26" /><path
       d="m 169.218,3.88008 0.178,-1.35625 0.042,-0.00664 0.241,1.36289 1.832,6.75192 h 1.371 l 1.846,-6.75192 0.242,-1.38516 h 0.042 l 0.192,1.38516 1.476,6.75192 h 1.52 L 175.701,0.294141 h -1.25 l -2.066,7.170699 -0.156,0.93125 h -0.043 l -0.149,-0.93125 -2.094,-7.170699 h -1.25 L 166.201,10.632 h 1.512 l 1.505,-6.75192"
       style="fill:#100f0d;fill-opacity:1;fill-rule:nonzero;stroke:none;stroke-width:0.1"
       id="path28" /><path
       d="m 180.527,4.12813 h 3.09 l -1.506,4.43789 h -0.042 z m 3.487,-1.17227 h -3.891 L 179.2,0.294141 h -1.428 L 181.5,10.632 h 1.2 l 3.649,-10.337859 h -1.427 l -0.908,2.661719"
       style="fill:#100f0d;fill-opacity:1;fill-rule:nonzero;stroke:none;stroke-width:0.1"
       id="path30" /><path
       d="m 194.235,1.62695 c -0.236,-0.36875 -0.648,-0.708981 -1.233,-1.017966 -0.585,-0.310156 -1.344,-0.464843 -2.278,-0.464843 -1.147,0 -2.097,0.380859 -2.848,1.141799 -0.752,0.76015 -1.127,1.74414 -1.127,2.95117 v 2.04883 c 0,1.20703 0.362,2.19023 1.086,2.95117 0.724,0.75898 1.658,1.13989 2.8,1.13989 1.108,0 1.982,-0.295 2.623,-0.88403 0.643,-0.58984 0.954,-1.33984 0.936,-2.25078 L 194.18,7.20117 h -1.29 c 0,0.60469 -0.196,1.10977 -0.588,1.51172 -0.391,0.4043 -0.947,0.60625 -1.667,0.60625 -0.76,0 -1.373,-0.28516 -1.838,-0.8543 -0.464,-0.56992 -0.696,-1.29179 -0.696,-2.16601 V 4.23711 c 0,-0.88398 0.246,-1.61211 0.737,-2.1832 0.493,-0.57188 1.121,-0.85703 1.886,-0.85703 0.587,0 1.053,0.07617 1.398,0.22929 0.342,0.15196 0.599,0.33281 0.768,0.5418 v 2.24101 h -2.255 v 1.05196 h 3.6 V 1.62695"
       style="fill:#100f0d;fill-opacity:1;fill-rule:nonzero;stroke:none;stroke-width:0.1"
       id="path32" /><path
       d="m 201.988,4.89883 h -4.084 V 1.33984 h 4.781 V 0.287891 h -6.128 V 10.234 h 6.052 V 9.175 h -4.705 V 5.95703 h 4.084 v -1.0582"
       style="fill:#100f0d;fill-opacity:1;fill-rule:nonzero;stroke:none;stroke-width:0.1"
       id="path34" /><path
       d="m 89.9121,123.854 h 59.8867 v 23.3051 H 89.9121 Z"
       style="fill:#e81c2c;fill-opacity:1;fill-rule:nonzero;stroke:none;stroke-width:0.1"
       id="path36" /><path
       d="M 109.643,125.352 H 91.2234 v 20.309 H 148.371 V 125.352 Z M 194.47,73.025 v 0.0215 c 0,23.4453 -19.013,42.5195 -42.385,42.5195 -8.117,0 -15.681,-2.341 -22.133,-6.327 v 13.117 h 21.158 v 26.3 H 88.4844 v -26.3 H 109.7 V 35.759 l 20.252,26.9457 v 10.4851 c 0.078,12.1809 9.973,22.0672 22.133,22.0672 12.208,0 22.141,-9.9636 22.141,-22.2105 V 73.025 h -5.81 l 5.81,-7.6398 4.121,-5.4207 5.989,-7.875 5.981,7.875 4.153,5.4707 5.765,7.5898 h -5.765"
       style="fill:#100f0d;fill-opacity:1;fill-rule:nonzero;stroke:none;stroke-width:0.1"
       id="path38" /><path
       d="m 60.8434,6.425 0.5531,0.83008 V 4.71602 L 60.943,5.10586 Z m -5.1793,0.94883 c 0,-0.64688 0.4507,-1.33164 0.7929,-1.65078 0.2887,-0.28086 0.8383,-0.47813 1.7633,-0.47813 0.4113,0 1.6059,0.31797 1.984,0.50313 -0.3176,0.28086 -0.768,0.68398 -1.3496,1.21015 -0.827,0.74493 -1.5285,1.54883 -2.0953,2.39571 C 56.1738,8.87109 55.6219,8.54688 55.6641,7.37383 Z m 2.5445,-7.229689 c -2.0856,0 -3.8906,0.717968 -5.3434,2.132809 -1.4453,1.4 -2.1828,3.13594 -2.1828,5.16016 0.027,1.31094 0.3598,2.40898 1.0324,3.27109 0.6227,0.7957 1.2809,1.559 1.984,2.1957 -0.5582,0.9 -1.1726,2.5441 -1.2109,3.8133 0,1.8258 0.8164,3.0297 1.7559,3.9699 0.9261,0.927 2.905,2.0598 4.7289,2.0598 3.2386,0 5.7441,-2.3957 6.355,-5.1321 l 0.1008,-0.4546 -5.1453,-1.0872 -0.1012,0.4442 c -0.123,0.5406 -0.582,0.9848 -1.2093,0.9848 -0.7762,0 -1.0747,-0.2661 -1.195,-0.8872 -0.0015,-0.0648 0.1032,-0.4589 0.4055,-1.0429 0.3606,-0.7008 0.5613,-1.0387 0.6258,-1.1559 0.8703,-1.575 2.3297,-2.9281 3.6711,-4.3781 0.1801,-0.19298 0.3492,-0.37306 0.4941,-0.52188 0.0453,0.61918 0.052,1.16918 0.0844,1.93008 l 0.0184,0.4348 4.9093,0.066 -0.0117,-0.4797 C 67.9219,9.41289 67.809,7.68711 67.2086,6.16719 67.8359,5.78984 68.8469,5.13398 69.7234,5.16406 L 70.2031,5.18203 70.1859,0.289063 H 69.727 c -2.1543,0 -3.809,0.953907 -5.1079,1.732817 C 64.4977,2.09414 64.3609,2.18594 64.2633,2.25586 63.0367,1.02891 60.6008,0.144141 58.2086,0.144141"
       style="fill:#e81c2c;fill-opacity:1;fill-rule:nonzero;stroke:none;stroke-width:0.1"
       id="path40" /><path
       d="m 121.772,44.2211 -19.174,-25.2492 -19.3816,25.489 -8,10.9555 V 0.144141 H 87.7602 V 19.0941 L 102.603,0.189063 117.404,19.0898 V 0.144141 h 12.544 V 55.4164 l -8.176,-11.1953"
       style="fill:#e81c2c;fill-opacity:1;fill-rule:nonzero;stroke:none;stroke-width:0.1"
       id="path42" /><path
       d="m 7.7207,69.9801 h 2.225 L 8.84063,72.3383 Z M 0,63.8598 8.33281,81.2699 H 9.33047 L 17.6742,63.8598 h -4.5844 l -1.2812,2.6496 H 5.85508 L 4.57383,63.8598 H 0"
       style="fill:#100f0d;fill-opacity:1;fill-rule:nonzero;stroke:none;stroke-width:0.1"
       id="path44" /><path
       d="m 28.1152,75.073 c 0,0.5372 -0.2218,0.9973 -0.6757,1.4098 -0.4497,0.3727 -1.4098,0.5801 -2.1989,0.5801 h -1.8433 v -4.0547 h 1.5675 v -0.0105 h 0.9161 c 1.1562,0 2.2343,0.8753 2.2343,2.0753 z m -8.93,-11.2132 -0.0114,17.4316 h 6.318 c 1.0301,0 2.0352,-0.148 3.0066,-0.4418 0.8457,-0.2973 1.5879,-0.7531 2.2266,-1.3633 1.091,-1.055 1.7828,-2.0929 1.7828,-4.0504 v -0.4355 c 0,-1.2039 -0.3937,-2.343 -1.1625,-3.3914 -0.55,-0.7453 -1.0105,-1.1274 -1.8199,-1.4981 l 4.1519,-6.2511 h -5.1351 l -5.134,6.8105 v -6.8105 h -4.223"
       style="fill:#100f0d;fill-opacity:1;fill-rule:nonzero;stroke:none;stroke-width:0.1"
       id="path46" /><path
       d="m 42.6586,77.1391 c -1.4516,0 -2.327,-0.4383 -3.3293,-1.334 -1.0211,-0.9117 -1.5184,-1.9688 -1.5184,-3.2188 0,-1.2636 0.4977,-2.3191 1.5161,-3.2168 1.0109,-0.8894 1.8875,-1.3254 3.3316,-1.3254 1.4199,0 2.2945,0.4348 3.3219,1.3274 1.0254,0.8894 1.5258,1.9441 1.5258,3.2148 0,1.2563 -0.5,2.3125 -1.5278,3.2172 -1.0191,0.8977 -1.8926,1.3356 -3.3199,1.3356 z m 0,4.2929 c 2.6465,0 4.6211,-0.8765 6.5109,-2.6054 1.791,-1.7293 2.6965,-3.8336 2.6965,-6.261 0,-2.4343 -0.9055,-4.5359 -2.6976,-6.2515 -1.8832,-1.709 -3.8571,-2.5735 -6.5102,-2.5735 -2.6602,0.0071 -4.6328,0.8703 -6.5098,2.5742 -1.7847,1.7227 -2.6859,3.8235 -2.6859,6.2508 0,2.4207 0.9016,4.5231 2.6844,6.2606 1.8914,1.7293 3.8652,2.6058 6.5117,2.6058"
       style="fill:#100f0d;fill-opacity:1;fill-rule:nonzero;stroke:none;stroke-width:0.1"
       id="path48" /><path
       d="m 64.5996,70.9586 v 10.3328 h 4.2445 V 70.809 c 0,-1.9563 -0.7261,-3.6516 -2.1582,-5.036 -1.4379,-1.3769 -3.3183,-2.0761 -5.5687,-2.0761 -2.2727,0 -4.1617,0.698 -5.5934,2.0761 -1.4308,1.3844 -2.157,3.0797 -2.157,5.036 v 10.4824 h 4.2445 V 70.9586 c 0,-0.8086 0.334,-1.4914 1.0293,-2.0898 0.693,-0.584 1.4973,-0.8672 2.4649,-0.8672 1.7504,0 3.4941,1.2547 3.4941,2.957"
       style="fill:#100f0d;fill-opacity:1;fill-rule:nonzero;stroke:none;stroke-width:0.1"
       id="path50" /><path
       d="m 73.1645,81.3348 8.8531,-11.6957 v 11.6957 h 4.3617 v -17.475 h -4.9535 l -6.0879,8.0793 v -8.0793 h -4.35 v 17.475 h 2.1766"
       style="fill:#100f0d;fill-opacity:1;fill-rule:nonzero;stroke:none;stroke-width:0.1"
       id="path52" /><path
       d="m 94.2359,77.0633 h -1.1125 l 0.0407,-8.9543 h 0.466 c 3.4242,0 5.5804,1.5301 5.9719,4.4773 0,2.9016 -2.3446,4.477 -5.3661,4.477 z m -0.3648,4.2176 v 0.0105 h 0.3754 c 3.0512,0 5.6012,-1.043 7.3285,-2.5625 1.622,-1.575 2.425,-3.6516 2.425,-6.1687 0,-2.5176 -0.804,-4.5891 -2.426,-6.1497 -2.1381,-1.6972 -4.8705,-2.5507 -8.0779,-2.5507 H 88.523 v 17.4211 h 5.3481"
       style="fill:#100f0d;fill-opacity:1;fill-rule:nonzero;stroke:none;stroke-width:0.1"
       id="path54" /><path
       d="m 39.6949,105.233 h 13.6082 v -4.268 h -4.4472 l 0.1636,-13.3248 h -4.8136 l -0.052,13.3248 h -4.459 v 4.268"
       style="fill:#100f0d;fill-opacity:1;fill-rule:nonzero;stroke:none;stroke-width:0.1"
       id="path56" /><path
       d="m 66.1543,94.8043 v 10.4287 h 4.2836 V 94.6543 c 0,-1.9746 -0.7328,-3.6855 -2.1777,-5.0836 -1.452,-1.3894 -3.3497,-2.0941 -5.6207,-2.0941 -2.2934,0 -4.1997,0.7047 -5.6446,2.0945 -1.4445,1.3977 -2.1773,3.1086 -2.1773,5.0832 v 10.5787 h 4.2836 V 94.8043 c 0,-0.816 0.3375,-1.5051 1.039,-2.1098 0.6993,-0.5886 1.511,-0.8742 2.4871,-0.8742 1.7672,0 3.527,1.2664 3.527,2.984"
       style="fill:#100f0d;fill-opacity:1;fill-rule:nonzero;stroke:none;stroke-width:0.1"
       id="path58" /><path
       d="m 81.6238,98.9574 c 0,0.5418 -0.2234,1.0059 -0.6824,1.4226 -0.4535,0.376 -1.4223,0.585 -2.2187,0.585 h -1.8606 v -4.092 h 1.582 v -0.0113 h 0.9247 c 1.1667,0 2.255,0.8844 2.255,2.0957 z M 72.6113,87.6402 72.6,105.233 h 6.3762 c 1.0394,0 2.0535,-0.149 3.0343,-0.446 0.8536,-0.3 1.6024,-0.76 2.2473,-1.376 1.1012,-1.065 1.7992,-2.112 1.7992,-4.088 v -0.4386 c 0,-1.216 -0.3972,-2.3645 -1.1738,-3.4235 -0.5547,-0.7515 -1.0195,-1.1367 -1.8363,-1.5117 l 4.1898,-6.309 h -5.182 l -5.1817,6.8735 v -6.8735 h -4.2617"
       style="fill:#100f0d;fill-opacity:1;fill-rule:nonzero;stroke:none;stroke-width:0.1"
       id="path60" /><path
       d="m 90.5156,105.277 8.9348,-11.8043 v 11.8043 h 4.4016 V 87.6402 h -4.9989 l -6.1441,8.1536 v -8.1536 h -4.3906 v 17.6368 h 2.1972"
       style="fill:#100f0d;fill-opacity:1;fill-rule:nonzero;stroke:none;stroke-width:0.1"
       id="path62" /><path
       d="M 0,55.4164 H 13.5102 V 34.4469 H 32.0398 V 55.4164 H 45.5504 V 0 H 32.0398 V 21.0051 H 13.5102 V 0 H 0 v 55.4164"
       style="fill:#e81c2c;fill-opacity:1;fill-rule:nonzero;stroke:none;stroke-width:0.1"
       id="path64" /></g></svg>