<?xml version="1.0" encoding="UTF-8" standalone="no"?>
<svg
   xmlns:dc="http://purl.org/dc/elements/1.1/"
   xmlns:cc="http://creativecommons.org/ns#"
   xmlns:rdf="http://www.w3.org/1999/02/22-rdf-syntax-ns#"
   xmlns:svg="http://www.w3.org/2000/svg"
   xmlns="http://www.w3.org/2000/svg"
   viewBox="0 0 99.999383 72.456"
   height="72.456001"
   width="99.999382"
   xml:space="preserve"
   id="svg2"
   version="1.1"><metadata
     id="metadata8"><rdf:RDF><cc:Work
         rdf:about=""><dc:format>image/svg+xml</dc:format><dc:type
           rdf:resource="http://purl.org/dc/dcmitype/StillImage" /><dc:title></dc:title></cc:Work></rdf:RDF></metadata><defs
     id="defs6" /><g
     transform="matrix(1.3333333,0,0,-1.3333333,-86.77764,135.332)"
     id="g10"><path
       d="m 132.50736,60.044983 c -0.96031,0 -1.73894,0.778378 -1.73894,1.738655 0,0.960314 0.77863,1.738545 1.73894,1.738545 0.96032,0 1.73859,-0.778231 1.73859,-1.738545 0,-0.960277 -0.77827,-1.738655 -1.73859,-1.738655 z m 0,4.356361 c -1.44577,0 -2.61774,-1.171898 -2.61774,-2.617706 0,-1.445808 2.61774,-5.166029 2.61774,-5.166029 0,0 2.61738,3.720221 2.61738,5.166029 0,1.445808 -1.17197,2.617706 -2.61738,2.617706"
       style="fill:#e81c2c;fill-opacity:1;fill-rule:nonzero;stroke:none;stroke-width:0.03655554"
       id="path14" /><path
       d="m 125.42327,52.146099 h 1.77294 v -0.384527 h -2.26498 v 3.635411 h 0.49204 v -3.250884"
       style="fill:#100f0d;fill-opacity:1;fill-rule:nonzero;stroke:none;stroke-width:0.03655554"
       id="path16" /><path
       d="m 127.7928,51.761572 h 0.49449 v 3.635419 h -0.49449 z"
       style="fill:#100f0d;fill-opacity:1;fill-rule:nonzero;stroke:none;stroke-width:0.03655554"
       id="path18" /><path
       d="m 130.2921,52.715306 0.0826,-0.302022 h 0.015 l 0.0822,0.302022 0.93911,2.681677 h 0.53189 l -1.3511,-3.635411 H 130.17 l -1.35109,3.635411 h 0.53444 l 0.93875,-2.681677"
       style="fill:#100f0d;fill-opacity:1;fill-rule:nonzero;stroke:none;stroke-width:0.03655554"
       id="path20" /><path
       d="m 132.47227,51.761572 h 0.49464 v 3.635419 h -0.49464 z"
       style="fill:#100f0d;fill-opacity:1;fill-rule:nonzero;stroke:none;stroke-width:0.03655554"
       id="path22" /><path
       d="m 136.6173,51.761572 h -0.4924 l -1.74991,2.776795 -0.015,-0.0052 v -2.77164 h -0.49204 v 3.635411 H 134.36 l 1.74991,-2.773505 0.015,0.0044 v 2.769082 h 0.4924 v -3.635411"
       style="fill:#100f0d;fill-opacity:1;fill-rule:nonzero;stroke:none;stroke-width:0.03655554"
       id="path24" /><path
       d="m 140.08277,52.251087 c -0.0863,-0.134525 -0.23688,-0.258887 -0.45073,-0.372136 -0.21385,-0.113395 -0.49131,-0.169654 -0.83237,-0.169654 -0.41966,0 -0.76694,0.138948 -1.04147,0.416697 -0.2749,0.278151 -0.41198,0.637565 -0.41198,1.07879 v 0.748987 c 0,0.441225 0.13197,0.800931 0.39699,1.07879 0.26467,0.278188 0.60573,0.417391 1.02392,0.417391 0.40431,0 0.7238,-0.107802 0.95886,-0.323845 0.23468,-0.215349 0.34874,-0.489771 0.34179,-0.8225 l -0.005,-0.01499 h -0.47193 c 0,0.221454 -0.072,0.406096 -0.21495,0.553049 -0.1433,0.147355 -0.34618,0.220905 -0.60902,0.220905 -0.27818,0 -0.5019,-0.104256 -0.67152,-0.311892 -0.16998,-0.20833 -0.25479,-0.471932 -0.25479,-0.791793 v -0.754104 c 0,-0.322858 0.0899,-0.589019 0.26978,-0.797349 0.17948,-0.2095 0.40942,-0.313574 0.68907,-0.313574 0.21495,0 0.38456,0.02742 0.51031,0.08368 0.12576,0.05553 0.21934,0.121803 0.28112,0.198497 v 0.818917 h -0.82397 v 0.384527 h 1.31564 v -1.328391"
       style="fill:#100f0d;fill-opacity:1;fill-rule:nonzero;stroke:none;stroke-width:0.03655554"
       id="path26" /><path
       d="m 126.94178,48.575383 0.0651,-0.495784 0.0154,-0.0024 0.0881,0.498211 0.6697,2.468201 h 0.50118 l 0.67481,-2.468201 0.0885,-0.506352 h 0.0154 l 0.0702,0.506352 0.53956,2.468201 h 0.55564 l -0.91352,-3.77906 h -0.45695 l -0.75523,2.621288 -0.057,0.340423 h -0.0157 l -0.0545,-0.340423 -0.76547,-2.621288 h -0.45694 l -0.91097,3.77906 h 0.55272 l 0.55016,-2.468201"
       style="fill:#100f0d;fill-opacity:1;fill-rule:nonzero;stroke:none;stroke-width:0.03655554"
       id="path28" /><path
       d="m 131.07585,48.666059 h 1.12957 l -0.55053,1.622295 h -0.0153 z m 1.27469,-0.428529 h -1.42238 l -0.3374,-0.973006 h -0.52202 l 1.36279,3.77906 h 0.43867 l 1.33391,-3.77906 h -0.52165 l -0.33192,0.973006"
       style="fill:#100f0d;fill-opacity:1;fill-rule:nonzero;stroke:none;stroke-width:0.03655554"
       id="path30" /><path
       d="m 136.08688,47.75174 c -0.0863,-0.134799 -0.23688,-0.259172 -0.45073,-0.372123 -0.21385,-0.113379 -0.4913,-0.169926 -0.83273,-0.169926 -0.41929,0 -0.76657,0.139225 -1.0411,0.417391 -0.2749,0.277877 -0.41199,0.637579 -0.41199,1.078816 v 0.748961 c 0,0.441236 0.13234,0.80065 0.397,1.078816 0.26466,0.277449 0.60609,0.416693 1.02355,0.416693 0.40504,0 0.72453,-0.107839 0.95885,-0.323162 0.23506,-0.21562 0.34874,-0.489786 0.34216,-0.822785 l -0.005,-0.01499 h -0.47157 c 0,0.221047 -0.0717,0.405682 -0.21495,0.552617 -0.14293,0.147794 -0.34618,0.221618 -0.60938,0.221618 -0.27782,0 -0.5019,-0.104242 -0.67189,-0.312294 -0.16962,-0.208337 -0.25442,-0.472221 -0.25442,-0.791796 v -0.753673 c 0,-0.323144 0.0899,-0.589316 0.26941,-0.798081 0.18022,-0.209054 0.40979,-0.313292 0.68944,-0.313292 0.21458,0 0.38493,0.02784 0.51104,0.08382 0.12502,0.05555 0.21897,0.121661 0.28075,0.198058 v 0.819214 h -0.82433 v 0.384549 h 1.316 V 47.75174"
       style="fill:#100f0d;fill-opacity:1;fill-rule:nonzero;stroke:none;stroke-width:0.03655554"
       id="path32" /><path
       d="m 138.92103,48.947793 h -1.49293 v -1.301008 h 1.74773 v -0.384546 h -2.24013 v 3.635854 h 2.21234 V 50.51097 h -1.71994 v -1.176346 h 1.49293 v -0.386831"
       style="fill:#100f0d;fill-opacity:1;fill-rule:nonzero;stroke:none;stroke-width:0.03655554"
       id="path34" /><path
       d="M 97.951084,92.432496 H 119.84299 V 100.9518 H 97.951084 Z"
       style="fill:#e81c2c;fill-opacity:1;fill-rule:nonzero;stroke:none;stroke-width:0.03655554"
       id="path36" /><path
       d="m 105.16382,92.980098 h -6.733383 v 7.424062 h 20.890613 v -7.424062 z m 31.00897,-19.128417 v 0.0079 c 0,8.570555 -6.95031,15.543232 -15.49407,15.543232 -2.96721,0 -5.73227,-0.855765 -8.09083,-2.312869 v 4.79499 h 7.73442 V 101.499 H 97.429181 v -9.614106 h 7.755479 v -31.656 l 7.40323,9.850146 v 3.832885 c 0.0285,4.452793 3.64568,8.066784 8.09083,8.066784 4.4627,0 8.09376,-3.642248 8.09376,-8.119168 v -0.0079 h -2.12387 l 2.12387,-2.79277 1.50646,-1.981566 2.18931,-2.878748 2.18639,2.878748 1.51815,1.999844 2.10742,2.774492 h -2.10742"
       style="fill:#100f0d;fill-opacity:1;fill-rule:nonzero;stroke:none;stroke-width:0.03655554"
       id="path38" /><path
       d="m 87.324864,49.505693 0.202189,0.30344 v -0.928167 l -0.165779,0.142508 z m -1.893321,0.34685 c 0,-0.236471 0.164756,-0.486789 0.289849,-0.603452 0.105536,-0.10267 0.306445,-0.174783 0.644584,-0.174783 0.150353,0 0.587046,0.116236 0.725262,0.183922 -0.1161,0.10267 -0.280747,0.250033 -0.493354,0.442377 -0.302314,0.272313 -0.558751,0.566183 -0.765948,0.875764 -0.214069,-0.176497 -0.415819,-0.295014 -0.400393,-0.723828 z m 0.930156,-2.642852 c -0.762402,0 -1.42223,0.262457 -1.953309,0.77966 -0.528337,0.511777 -0.797934,1.146359 -0.797934,1.886324 0.0099,0.479221 0.131527,0.880616 0.3774,1.195764 0.227631,0.290873 0.468239,0.569901 0.725261,0.80265 -0.204053,0.329 -0.42865,0.93001 -0.442651,1.393973 0,0.667431 0.29844,1.107523 0.641879,1.451218 0.338541,0.33887 1.061939,0.752971 1.728675,0.752971 1.183888,0 2.099787,-0.875761 2.323104,-1.876067 l 0.03685,-0.166181 -1.880892,-0.397432 -0.03699,0.16238 c -0.04496,0.197619 -0.212753,0.359999 -0.442066,0.359999 -0.283744,0 -0.392862,-0.09727 -0.436839,-0.324321 -5.48e-4,-0.02369 0.03773,-0.167753 0.148233,-0.381238 0.131819,-0.256181 0.205186,-0.379702 0.228765,-0.422545 0.318142,-0.57575 0.851634,-1.070383 1.34199,-1.600438 0.06584,-0.07055 0.127652,-0.136374 0.180621,-0.190776 0.01656,0.226344 0.01901,0.4274 0.03085,0.705551 l 0.0067,0.158943 1.794621,0.02413 -0.0043,-0.175357 c -0.01927,-0.750964 -0.06054,-1.381832 -0.280015,-1.937447 0.229312,-0.137942 0.598889,-0.377696 0.919298,-0.3667 l 0.175357,0.0066 -0.0063,-1.78865 h -0.167754 c -0.787516,0 -1.3924,0.348706 -1.86722,0.63344 -0.04438,0.02642 -0.09439,0.05997 -0.130065,0.08553 -0.44839,-0.448518 -1.338846,-0.77195 -2.213328,-0.77195"
       style="fill:#e81c2c;fill-opacity:1;fill-rule:nonzero;stroke:none;stroke-width:0.03655554"
       id="path40" /><path
       d="m 109.59764,63.322261 -7.00916,-9.229981 -7.085045,9.317641 -2.924443,4.004842 V 47.209691 h 4.585454 v 6.927259 l 5.425864,-6.910838 5.41059,6.909267 v -6.925688 h 4.58552 v 20.205072 l -2.98878,-4.092502"
       style="fill:#e81c2c;fill-opacity:1;fill-rule:nonzero;stroke:none;stroke-width:0.03655554"
       id="path42" /><path
       d="m 67.905575,72.738602 h 0.813361 l -0.403964,0.862052 z m -2.822343,-2.237309 3.046103,6.364356 h 0.3647 l 3.050096,-6.364356 h -1.675852 l -0.46835,0.968576 H 67.223588 L 66.75522,70.501293 h -1.671988"
       style="fill:#100f0d;fill-opacity:1;fill-rule:nonzero;stroke:none;stroke-width:0.03655554"
       id="path44" /><path
       d="m 75.360895,74.600339 c 0,0.196376 -0.08108,0.364568 -0.247006,0.51536 -0.16439,0.136242 -0.51536,0.212058 -0.80382,0.212058 H 73.636241 V 73.84554 h 0.573008 v -0.0038 h 0.334885 c 0.422655,0 0.816761,0.31997 0.816761,0.758637 z m -3.26441,-4.099046 -0.0042,6.372215 h 2.309579 c 0.376558,0 0.743978,-0.0541 1.099079,-0.161502 0.30915,-0.10868 0.580465,-0.2753 0.813945,-0.498362 0.398821,-0.385661 0.651712,-0.765071 0.651712,-1.480645 v -0.1592 c 0,-0.440092 -0.143919,-0.856496 -0.424958,-1.239744 -0.201055,-0.272449 -0.369394,-0.412127 -0.665274,-0.547639 l 1.517749,-2.285123 h -1.877163 l -1.876762,2.489615 v -2.489615 h -1.54374"
       style="fill:#100f0d;fill-opacity:1;fill-rule:nonzero;stroke:none;stroke-width:0.03655554"
       id="path46" /><path
       d="m 80.677313,75.355613 c -0.53064,0 -0.850648,-0.160223 -1.217044,-0.487651 -0.373268,-0.333277 -0.555059,-0.719706 -0.555059,-1.17665 0,-0.461916 0.181937,-0.847759 0.554219,-1.175918 0.369539,-0.325125 0.689985,-0.484507 1.217884,-0.484507 0.519052,0 0.838767,0.158943 1.214338,0.485238 0.374841,0.325125 0.557765,0.710676 0.557765,1.175187 0,0.459247 -0.182778,0.845347 -0.558496,1.176065 -0.372537,0.328159 -0.69185,0.488236 -1.213607,0.488236 z m 0,1.569292 c 0.967442,0 1.689268,-0.320409 2.380094,-0.952418 0.65471,-0.632154 0.985721,-1.401393 0.985721,-2.288742 0,-0.889871 -0.331011,-1.658122 -0.986123,-2.285269 -0.688414,-0.624734 -1.409983,-0.940757 -2.379838,-0.940757 -0.972451,0.0026 -1.693545,0.318143 -2.379693,0.941013 -0.652406,0.629742 -0.981845,1.397701 -0.981845,2.285013 0,0.8849 0.329585,1.653444 0.981297,2.288596 0.691411,0.632155 1.412945,0.952564 2.380387,0.952564"
       style="fill:#100f0d;fill-opacity:1;fill-rule:nonzero;stroke:none;stroke-width:0.03655554"
       id="path48" /><path
       d="m 88.697964,73.096298 v 3.77721 h 1.551599 v -3.831897 c 0,-0.715136 -0.265429,-1.334862 -0.788941,-1.840937 -0.525632,-0.503334 -1.213023,-0.75893 -2.035668,-0.75893 -0.830798,0 -1.521332,0.255158 -2.044698,0.75893 -0.523037,0.506075 -0.788503,1.125801 -0.788503,1.840937 v 3.831897 h 1.5516 v -3.77721 c 0,-0.295588 0.122095,-0.54519 0.376266,-0.763938 0.25333,-0.213484 0.547346,-0.31701 0.901058,-0.31701 0.639868,0 1.277287,0.458663 1.277287,1.080948"
       style="fill:#100f0d;fill-opacity:1;fill-rule:nonzero;stroke:none;stroke-width:0.03655554"
       id="path50" /><path
       d="m 91.828909,76.889373 3.236298,-4.275426 v 4.275426 h 1.594443 v -6.38808 h -1.810778 l -2.225465,2.953432 v -2.953432 h -1.590166 v 6.38808 h 0.795668"
       style="fill:#100f0d;fill-opacity:1;fill-rule:nonzero;stroke:none;stroke-width:0.03655554"
       id="path52" /><path
       d="m 99.531673,75.327904 h -0.406681 l 0.01488,-3.273293 h 0.170349 c 1.251729,0 2.039939,0.559336 2.183059,1.636701 0,1.060696 -0.85708,1.636592 -1.961605,1.636592 z m -0.133355,1.541766 v 0.0038 h 0.13723 c 1.115382,0 2.047552,-0.381274 2.678972,-0.936735 0.59293,-0.57575 0.88647,-1.334862 0.88647,-2.255002 0,-0.920322 -0.2939,-1.67757 -0.88684,-2.248056 -0.78159,-0.62042 -1.78043,-0.932422 -2.952915,-0.932422 h -1.817944 v 6.368377 h 1.955027"
       style="fill:#100f0d;fill-opacity:1;fill-rule:nonzero;stroke:none;stroke-width:0.03655554"
       id="path54" /><path
       d="m 79.593916,85.625489 h 4.974551 v -1.56019 h -1.625698 l 0.0598,-4.870953 h -1.759637 l -0.01901,4.870953 H 79.59391 v 1.56019"
       style="fill:#100f0d;fill-opacity:1;fill-rule:nonzero;stroke:none;stroke-width:0.03655554"
       id="path56" /><path
       d="m 89.266293,81.813222 v 3.812267 h 1.565893 v -3.867101 c 0,-0.721825 -0.267879,-1.347254 -0.79607,-1.858337 -0.530787,-0.507903 -1.224501,-0.765509 -2.054678,-0.765509 -0.838364,0 -1.535222,0.257606 -2.063413,0.765655 -0.528045,0.510937 -0.795924,1.136366 -0.795924,1.858191 v 3.867101 h 1.565893 v -3.812267 c 0,-0.298293 0.123375,-0.550198 0.379812,-0.771249 0.255633,-0.215166 0.552354,-0.319569 0.909173,-0.319569 0.646009,0 1.289314,0.46294 1.289314,1.090818"
       style="fill:#100f0d;fill-opacity:1;fill-rule:nonzero;stroke:none;stroke-width:0.03655554"
       id="path58" /><path
       d="m 94.921252,83.33141 c 0,0.198058 -0.08167,0.367712 -0.249455,0.520039 -0.16578,0.137449 -0.51993,0.21385 -0.811058,0.21385 h -0.680153 v -1.495853 h 0.578309 v -0.0041 h 0.338029 c 0.426494,0 0.824328,0.323298 0.824328,0.766095 z m -3.294568,-4.137064 -0.0041,6.431143 h 2.330854 c 0.379958,0 0.750668,-0.05447 1.109205,-0.163038 0.312038,-0.109666 0.585766,-0.277822 0.821512,-0.503004 0.40255,-0.389316 0.657708,-0.772053 0.657708,-1.49439 v -0.160333 c 0,-0.444515 -0.145199,-0.864355 -0.429089,-1.251479 C 95.91,81.778531 95.74009,81.637719 95.441504,81.500635 l 1.531604,-2.306289 H 95.0788 l -1.894198,2.512645 v -2.512645 h -1.557887"
       style="fill:#100f0d;fill-opacity:1;fill-rule:nonzero;stroke:none;stroke-width:0.03655554"
       id="path60" /><path
       d="m 98.171697,85.641574 3.266163,-4.315126 v 4.315126 h 1.60903 v -6.447228 h -1.82738 l -2.246004,2.980593 v -2.980593 h -1.605007 v 6.447228 h 0.803198"
       style="fill:#100f0d;fill-opacity:1;fill-rule:nonzero;stroke:none;stroke-width:0.03655554"
       id="path62" /><path
       d="m 65.083232,67.414763 h 4.938726 v -7.665514 h 6.773595 v 7.665514 h 4.938873 V 47.156999 h -4.938873 v 7.678528 h -6.773595 v -7.678528 h -4.938726 v 20.257764"
       style="fill:#e81c2c;fill-opacity:1;fill-rule:nonzero;stroke:none;stroke-width:0.03655554"
       id="path64" /></g></svg>